<?xml version="1.0" encoding="utf-8"?>
<!-- Generator: Adobe Illustrator 27.2.0, SVG Export Plug-In . SVG Version: 6.00 Build 0)  -->
<svg version="1.1" id="Layer_1" xmlns="http://www.w3.org/2000/svg" xmlns:xlink="http://www.w3.org/1999/xlink" x="0px" y="0px"
	 viewBox="0 0 700 700" style="enable-background:new 0 0 700 700;" xml:space="preserve">
<g>
	<path d="M595,122.5H105c-6.3,0-12-3.3-15.2-8.8s-3.1-12.1,0-17.5s8.9-8.8,15.2-8.8h490c6.3,0,12,3.3,15.2,8.8s3.1,12.1,0,17.5
		S601.3,122.5,595,122.5z"/>
	<path d="M595,297.5H105c-6.3,0-12-3.3-15.2-8.8s-3.1-12.1,0-17.5s8.9-8.8,15.2-8.8h490c6.3,0,12,3.3,15.2,8.8s3.1,12.1,0,17.5
		S601.3,297.5,595,297.5z"/>
	<path d="M595,472.5H105c-6.3,0-12-3.3-15.2-8.8s-3.1-12.1,0-17.5s8.9-8.8,15.2-8.8h490c6.3,0,12,3.3,15.2,8.8s3.1,12.1,0,17.5
		S601.3,472.5,595,472.5z"/>
</g>
</svg>
